<?xml version="1.0" encoding="utf-8"?>
<!-- Generator: Adobe Illustrator 12.0.0, SVG Export Plug-In . SVG Version: 6.00 Build 51448)  -->
<!DOCTYPE svg PUBLIC "-//W3C//DTD SVG 1.1//EN" "http://www.w3.org/Graphics/SVG/1.1/DTD/svg11.dtd" [
	<!ENTITY ns_svg "http://www.w3.org/2000/svg">
	<!ENTITY ns_xlink "http://www.w3.org/1999/xlink">
]>
<svg  version="1.1" id="Layer_3" xmlns="&ns_svg;" xmlns:xlink="&ns_xlink;" width="4839.012" height="2911.958"
	 viewBox="0 0 4839.012 2911.958" overflow="visible" enable-background="new 0 0 4839.012 2911.958" xml:space="preserve">
<path id="RAT_Tail_3_" fill="#FFFFFF" d="M28.881,1088.732l426.942,13.58l326.234,293.646l272.125,630.48l359.517,141.424
	l-72.463-160.137c-35.294-5.883-233.567-88.891-233.567-88.891L885.295,1325.37l-376.53-328.941L28.881,1088.732z"/>
<polygon fill="#FFFFFF" points="1954.669,2182.963 1413.7,2167.86 1302.882,2019.958 1314.646,1525.84 1538.175,814.075 
	1944.057,467.017 2496.998,314.075 3118.237,461.5 3601.557,877.12 3832.293,1790.545 3779.352,1967.016 2736,1742.958 
	2432,2030.958 1954.667,2182.959 2149.438,2100.573 2261.791,1970.917 2428.034,1705.899 2450.595,1446.569 2369.38,1225.277 
	2213.676,1121.893 2346.004,1258.956 2416.001,1464.95 2397.992,1686.954 2267.995,1906.956 2131.997,2070.965 "/>
<polyline display="none" points="1413.7,2164.86 1502.639,2373.35 1889.678,2379.35 1913.68,2238.336 1673.656,2274.338 
	1954.667,2179.959 "/>
<g>
	<polygon fill="#FFFFFF" points="4191.486,774.216 4114.898,830.204 4012,842.958 3901.006,823.459 3794.511,731.963 
		3736.014,632.969 3683.518,481.476 3671.518,308.985 3727.015,121.494 3829.009,20.999 3959.503,0 4046.498,31.499 
		4160.492,136.493 4206.99,218.989 4254.986,379.481 4262.486,470.977 4253.488,584.971 4229.488,683.966 	"/>
	<g id="XMLID_3_">
		<g>
			<polygon points="4158,240.958 4208,396.958 4204,582.958 4170,704.958 4184,584.958 4174,464.958 4152,336.958 4084,212.958 
				4006,126.958 3940,98.958 3864,108.958 3810,134.958 3868,76.958 3964,70.958 4066,114.958 			"/>
		</g>
	</g>
</g>
<g id="Layer_4">
</g>
<g>
	<polygon fill="#FFFFFF" points="3980.309,711.975 3942.934,799.172 3860.89,862.574 3755.447,902.348 3617.193,877.879 
		3516.422,822.501 3394.063,718.894 3295.854,576.584 3248.081,386.978 3284.641,248.539 3386.229,163.982 3477.134,146.762 
		3628.717,179.026 3710.76,226.321 3833.83,339.965 3886.9,414.873 3937.236,517.546 3967.025,614.956 	"/>
	<g id="XMLID_2_">
		<g>
			<polygon points="3918.906,574.277 3936,730.958 3894.754,592.816 3777.661,429.43 3664.01,307.465 3546.168,260.854 
				3424.623,260.261 3316.902,308.949 3407.507,217.099 3562.199,208.443 3718.14,280.853 3856.414,462.516 			"/>
		</g>
	</g>
</g>
<path id="Front_R_Leg" fill="#FFFFFF" d="M3832.293,1790.545l-23.53,394.119l235.295-17.646c0,0,70.587,176.471,52.94,164.705
	s-417.646,5.883-417.646,5.883l-170.589-252.941l-370.588-264.705"/>
<polygon fill="#FFFFFF" points="3372.063,680.894 3932,734.958 4112,596.958 4281.352,655.017 4622.527,837.37 4822.527,1066.782 
	4781.352,1284.429 4616.646,1372.663 4310.764,1437.368 4008.763,1537.606 3832.293,1790.545 3398.998,1613.84 3275.47,819.723 "/>
<polyline id="Nose" points="4698,1312.958 4688,1232.958 4594,1228.958 4692,1204.958 4780,1136.958 4712,1216.958 "/>
<polyline id="Eye" points="4023.666,1062.791 4017.166,1029.291 4011.166,1005.291 4019.666,975.791 4038.666,944.291 
	4113.666,979.291 4110.166,1027.791 4136.666,1062.791 4168.666,1067.291 4196.166,1017.291 4308.166,1070.291 4222.166,1114.291 
	4127.333,1123.625 4067.666,1100.791 "/>
<polygon points="4371.497,1233.026 4107.218,1215.444 3858.503,1244.89 4104.618,1226.421 "/>
<polygon points="4377.802,1263.177 4113.827,1284.854 3872.198,1350.74 4112.879,1296.094 "/>
<polygon points="4395.783,1296.102 4137,1352.526 3906.218,1449.814 4137.548,1363.794 "/>
<path d="M2069.614,2109.535"/>
</svg>
