<?xml version="1.0" encoding="utf-8"?>
<!-- Generator: Adobe Illustrator 12.0.0, SVG Export Plug-In . SVG Version: 6.00 Build 51448)  -->
<!DOCTYPE svg PUBLIC "-//W3C//DTD SVG 1.1//EN" "http://www.w3.org/Graphics/SVG/1.1/DTD/svg11.dtd" [
	<!ENTITY ns_svg "http://www.w3.org/2000/svg">
	<!ENTITY ns_xlink "http://www.w3.org/1999/xlink">
]>
<svg  version="1.1" id="Layer_3" xmlns="&ns_svg;" xmlns:xlink="&ns_xlink;" width="4839.012" height="2911.958"
	 viewBox="0 0 4839.012 2911.958" overflow="visible" enable-background="new 0 0 4839.012 2911.958" xml:space="preserve">
<g>
	<path fill="#FFFFFF" d="M184.938,2541.428h83.5v276h-83.5v-82.5l-97-76.5v159h-83.5v-276h83.5v24.5l97,76V2541.428
		L184.938,2541.428z"/>
	<path fill="#FFFFFF" d="M293.979,2541.428h264.5v276h-83v-105h-98.5v105h-83V2541.428z M376.979,2646.428h98.5v-39h-98.5V2646.428z
		"/>
	<path fill="#FFFFFF" d="M760.59,2541.928h83v275.5h-264.5v-275.5h83v210h98.5V2541.928z"/>
	<path fill="#FFFFFF" d="M1134.77,2541.928l-0.063,65.5H952.27v144.5h99v-39.5h-33.5v-65.5h117v170.5h-265.5v-275.5H1134.77z"/>
	<path fill="#FFFFFF" d="M1341.587,2541.928h83v275.5h-83v-105h-98.5v105h-83v-275.5h83v105h98.5V2541.928z"/>
	<path fill="#FFFFFF" d="M1686.056,2541.428v66h-77.288v210h-83.5v-210h-74.75v-66H1686.056z"/>
	<path fill="#FFFFFF" d="M1953.352,2541.428l-79.819,134v0.5v141.5h-83v-141.5h-0.633l-81.087-134.5h82.984l39.914,66l39.289-66
		H1953.352z"/>
	<path fill="#FFFFFF" d="M2315.764,2712.428l73.055,57v47.5h-57.766l-128.234-100.5v101h-83.5v-275.5h265.5v170.5H2315.764z
		 M2202.818,2607.428v39.5h98.5v-39.5H2202.818z"/>
	<path fill="#FFFFFF" d="M2410.136,2541.428h264.5v276h-83v-105h-98.5v105h-83V2541.428z M2493.136,2646.428h98.5v-39h-98.5
		V2646.428z"/>
	<path fill="#FFFFFF" d="M2918.363,2541.428v66h-77.289v210h-83.5v-210h-74.75v-66H2918.363z"/>
	<path fill="#FFFFFF" d="M3338.063,2541.928v65.5v13.5h-83v-13.5h-83.5v39.5h166.5v170.5h-166.5h-83.5v-65.5v-13.5h83.5v13.5h83.5
		v-39.5h-167v-170.5h167H3338.063z"/>
	<path fill="#FFFFFF" d="M3599.461,2541.428v66h-77.289v210h-83.5v-210h-74.75v-66H3599.461z"/>
	<path fill="#FFFFFF" d="M3804.938,2541.928h83v275.5h-264.5v-275.5h83v210h98.5V2541.928z"/>
	<path fill="#FFFFFF" d="M4164.116,2541.928v275.5h-250.344v-65.5h34.844v-144.5h-34.844v-65.5H4164.116z M4081.116,2751.928v-144.5
		h-49v144.5H4081.116z"/>
	<path fill="#FFFFFF" d="M4189.855,2541.928h83.5v275.5h-83.5V2541.928z"/>
	<path fill="#FFFFFF" d="M4563.331,2540.928v276h-264.5v-276H4563.331z M4480.331,2750.928v-144h-98.5v144H4480.331z"/>
	<path fill="#FFFFFF" d="M4839.012,2541.928v65.5v13.5h-83v-13.5h-83.5v39.5h166.5v170.5h-166.5h-83.5v-65.5v-13.5h83.5v13.5h83.5
		v-39.5h-167v-170.5h167H4839.012z"/>
</g>
<rect y="2867.958" fill="#FFFFFF" width="4837" height="44"/>
<g id="XMLID_8_">
	<g>
		<polygon fill="#FFFFFF" points="4254.986,379.479 4262.486,470.979 4253.486,584.969 4229.486,683.969 4191.486,774.219 
			4114.896,830.209 4011.996,842.959 3901.006,823.459 3794.506,731.959 3736.016,632.969 3683.516,481.479 3671.516,308.989 
			3727.016,121.499 3829.006,20.999 3959.506,-0.001 4046.496,31.499 4160.496,136.489 4206.986,218.989 		"/>
	</g>
	<g>
	</g>
</g>
<g id="Layer_4">
</g>
<g id="XMLID_7_">
	<g>
		<polygon fill="#FFFFFF" points="3967.025,614.959 3980.306,711.979 3942.936,799.169 3860.886,862.579 3755.446,902.349 
			3617.196,877.879 3516.426,822.499 3394.065,718.889 3295.855,576.579 3248.086,386.979 3284.636,248.539 3386.226,163.979 
			3477.136,146.759 3628.716,179.029 3710.756,226.319 3833.826,339.969 3886.896,414.869 3937.236,517.549 		"/>
	</g>
	<g>
	</g>
</g>
<g id="XMLID_1_">
	<g>
		<polygon fill="#FFFFFF" points="4622.525,837.369 4822.525,1066.779 4781.355,1284.429 4616.646,1372.659 4310.766,1437.369 
			4008.766,1537.609 3832.296,1790.549 3601.556,877.119 3373.525,681.029 3931.996,734.959 4111.996,596.959 4281.355,655.019 		
			"/>
		<path fill="#FFFFFF" d="M4044.056,2167.019c0,0,70.59,176.47,52.94,164.7c-17.641-11.76-417.641,5.89-417.641,5.89
			l-170.59-252.939l-351.84-251.32l622.43,133.67l52.94-176.47l-23.53,394.12L4044.056,2167.019z"/>
		<polygon fill="#FFFFFF" points="3601.556,877.119 3832.296,1790.549 3398.996,1613.839 3275.466,819.719 3372.065,680.889 
			3373.525,681.029 		"/>
		<polygon fill="#FFFFFF" points="3832.296,1790.549 3779.355,1967.019 3156.926,1833.349 3138.176,1819.959 		"/>
		<path fill="#FFFFFF" d="M3832.296,1790.549l-694.12,29.41l18.75,13.39l-420.93-90.39l-304,288l-477.33,152l194.77-82.391
			l112.36-129.649l166.24-265.021l22.56-259.33l-81.22-221.29l-155.7-103.39l132.33,137.07l70,205.99l-18.01,222l-130,220.011
			l-136,164.01l-177.33,111.99l-8.25-0.23l8.25-2.77l-540.97-15.101l1.3,3.04l-1.3-0.04l-72.46-160.13
			c-7.05-1.18-20.61-5.43-37.79-11.49l11.2-470.399l223.53-711.76l405.88-347.06l552.94-152.94l621.24,147.42l255.289,219.53
			l-1.46-0.14l-96.6,138.83l123.53,794.12L3832.296,1790.549z"/>
		<polygon fill="#FFFFFF" points="1954.666,2179.959 1946.416,2182.729 1414.996,2167.899 1413.696,2164.859 		"/>
		<polygon fill="#FFFFFF" points="1946.416,2182.729 1673.656,2274.339 1913.676,2238.339 1889.676,2379.349 1502.636,2373.349 
			1414.996,2167.899 		"/>
		<path fill="#FFFFFF" d="M1341.236,2007.729l72.46,160.13l-110.81-147.899l0.56-23.721
			C1320.626,2002.299,1334.186,2006.549,1341.236,2007.729z"/>
		<path fill="#FFFFFF" d="M1302.886,2019.959l110.81,147.899l-359.51-141.42l-272.13-630.48l-326.23-293.65l-426.94-13.58
			l479.88-92.3l376.53,328.94l222.37,593.47c0,0,126.97,53.149,195.78,77.399L1302.886,2019.959z"/>
	</g>
	<g>
	</g>
</g>
<g id="XMLID_9_">
	<g>
		<polygon points="4779.996,1136.959 4711.996,1216.959 4697.996,1312.959 4687.996,1232.959 4593.996,1228.959 4691.996,1204.959 
					"/>
		<polygon points="4395.786,1296.099 4137.546,1363.789 3906.216,1449.819 4136.996,1352.529 		"/>
		<polygon points="4377.806,1263.179 4112.876,1296.089 3872.196,1350.739 4113.826,1284.849 		"/>
		<polygon points="4371.496,1233.029 4104.616,1226.419 3858.506,1244.889 4107.216,1215.449 		"/>
		<polygon points="4308.166,1070.289 4222.166,1114.289 4127.336,1123.629 4067.666,1100.789 4023.666,1062.789 4017.166,1029.289 
			4011.166,1005.289 4019.666,975.789 4038.666,944.289 4113.666,979.289 4110.166,1027.789 4136.666,1062.789 4168.666,1067.289 
			4196.166,1017.289 		"/>
		<polygon points="4157.996,240.959 4207.996,396.959 4203.996,582.959 4169.996,704.959 4183.996,584.959 4173.996,464.959 
			4151.996,336.959 4083.996,212.959 4005.996,126.959 3939.996,98.959 3863.996,108.959 3809.996,134.959 3867.996,76.959 
			3963.996,70.959 4065.996,114.959 		"/>
		<polygon points="3918.906,574.279 3935.996,730.959 3894.756,592.819 3777.666,429.429 3664.006,307.469 3546.166,260.859 
			3424.626,260.259 3316.906,308.949 3407.506,217.099 3562.196,208.439 3718.136,280.849 3856.416,462.519 		"/>
	</g>
	<g>
	</g>
</g>
<path d="M2069.614,2109.535"/>
</svg>
