<?xml version="1.0" encoding="utf-8"?>
<!-- Generator: Adobe Illustrator 12.0.0, SVG Export Plug-In . SVG Version: 6.00 Build 51448)  -->
<!DOCTYPE svg PUBLIC "-//W3C//DTD SVG 1.1//EN" "http://www.w3.org/Graphics/SVG/1.1/DTD/svg11.dtd" [
	<!ENTITY ns_svg "http://www.w3.org/2000/svg">
	<!ENTITY ns_xlink "http://www.w3.org/1999/xlink">
]>
<svg  version="1.1" id="Layer_1" xmlns="&ns_svg;" xmlns:xlink="&ns_xlink;" width="4839.012" height="2911.958"
	 viewBox="0 0 4839.012 2911.958" overflow="visible" enable-background="new 0 0 4839.012 2911.958" xml:space="preserve">
<g id="Layer_2">
</g>
<g id="Layer_3">
	<g id="XMLID_8_" display="none">
		<g display="inline">
			<polygon fill="#FFFFFF" points="4254.986,383.479 4262.486,474.979 4253.486,588.969 4229.486,687.969 4191.486,778.219 
				4114.896,834.209 4011.996,846.959 3901.006,827.459 3794.506,735.959 3736.016,636.969 3683.516,485.479 3671.516,312.989 
				3727.016,125.499 3829.006,24.999 3959.506,3.999 4046.496,35.499 4160.496,140.489 4206.986,222.989 			"/>
		</g>
	</g>
	<g id="Layer_4" display="none">
	</g>
	<g id="XMLID_7_" display="none">
		<g display="inline">
			<polygon fill="#FFFFFF" points="3967.025,618.959 3980.306,715.979 3942.936,803.169 3860.886,866.579 3755.446,906.349 
				3617.196,881.879 3516.426,826.499 3394.064,722.889 3295.855,580.579 3248.086,390.979 3284.636,252.539 3386.227,167.979 
				3477.136,150.759 3628.716,183.029 3710.756,230.319 3833.826,343.969 3886.896,418.869 3937.236,521.549 			"/>
		</g>
	</g>
	<g id="XMLID_1_" display="none">
		<g display="inline">
			<polygon fill="#FFFFFF" points="4622.525,841.369 4822.525,1070.779 4781.355,1288.429 4616.646,1376.659 4310.766,1441.369 
				4008.766,1541.61 3832.296,1794.549 3601.556,881.119 3373.525,685.029 3931.996,738.959 4111.996,600.959 4281.355,659.019 			
				"/>
			<path fill="#FFFFFF" d="M4044.056,2171.02c0,0,70.591,176.469,52.94,164.699c-17.641-11.76-417.641,5.891-417.641,5.891
				l-170.591-252.939l-351.84-251.32l622.43,133.67l52.94-176.471l-23.53,394.121L4044.056,2171.02z"/>
			<polygon fill="#FFFFFF" points="3601.556,881.119 3832.296,1794.549 3398.996,1617.838 3275.466,823.719 3372.064,684.889 
				3373.525,685.029 			"/>
			<polygon fill="#FFFFFF" points="3832.296,1794.549 3779.355,1971.02 3156.926,1837.348 3138.176,1823.959 			"/>
			<path fill="#FFFFFF" d="M3832.296,1794.549l-694.12,29.41l18.75,13.389l-420.93-90.389l-304,288l-477.33,152l194.77-82.391
				l112.36-129.65l166.24-265.021l22.56-259.329l-81.22-221.291l-155.7-103.39l132.33,137.07l70,205.99l-18.01,222l-130,220.012
				l-136,164.01l-177.33,111.99l-8.25-0.23l8.25-2.77l-540.97-15.102l1.3,3.039l-1.3-0.039l-72.46-160.131
				c-7.05-1.18-20.61-5.43-37.79-11.49l11.2-470.398l223.529-711.76l405.881-347.06l552.939-152.94l621.24,147.42l255.289,219.529
				l-1.46-0.14l-96.601,138.83l123.53,794.12L3832.296,1794.549z"/>
			<polygon fill="#FFFFFF" points="1954.666,2183.959 1946.416,2186.729 1414.996,2171.899 1413.696,2168.86 			"/>
			<polygon fill="#FFFFFF" points="1946.416,2186.729 1673.656,2278.338 1913.676,2242.338 1889.676,2383.35 1502.636,2377.35 
				1414.996,2171.899 			"/>
			<path fill="#FFFFFF" d="M1341.236,2011.729l72.46,160.131l-110.811-147.9l0.561-23.721
				C1320.626,2006.299,1334.186,2010.549,1341.236,2011.729z"/>
			<path fill="#FFFFFF" d="M1302.886,2023.959l110.811,147.898l-359.511-141.42l-272.13-630.48l-326.229-293.65l-426.94-13.58
				l479.879-92.3l376.53,328.94l222.37,593.47c0,0,126.97,53.148,195.78,77.398L1302.886,2023.959z"/>
		</g>
	</g>
	<g id="Layer_4_1_">
		<polyline fill="#FFFFFF" points="1120.168,1962.045 1298.659,1990.543 1314.646,1529.838 1464.006,1058.479 1696.006,688.479 
			2066.006,424.479 2608.006,324.479 3166.006,500.479 3400.006,736.479 3295.855,580.579 3260.006,420.479 3284.636,252.539 
			3386.227,167.979 3528.006,158.479 3710.006,222.479 3727.016,125.499 3829.006,24.999 3962.006,12.479 4094.006,74.479 
			4160.496,140.489 4226.006,262.479 4254.986,383.479 4262.486,474.979 4253.486,588.969 4242.006,644.479 4633.045,847.237 
			4822.525,1070.779 4781.355,1288.429 4616.646,1376.659 4321.016,1435.296 4008.766,1541.61 3832.296,1794.549 3808.766,2188.668 
			4041.988,2134.368 4161.999,2392.393 3696.953,2389.393 3524.006,2160.479 3228.006,1900.479 2800.006,1764.479 
			2436.006,1824.479 2044.006,1992.479 1732.505,2260.68 1913.676,2242.338 1966.459,2386.657 1502.636,2377.35 1315.006,2132.479 
			1054.186,2030.44 764.686,1465.571 487.199,1182.086 88.219,1093.591 502.196,1099.59 833.68,1416.074 		"/>
	</g>
	<g id="XMLID_9_">
		<g>
			<polygon points="4779.996,1140.959 4711.996,1220.959 4697.996,1316.959 4687.996,1236.959 4593.996,1232.959 4691.996,1208.959 
							"/>
			<polygon points="4395.786,1300.099 4137.546,1367.789 3906.216,1453.819 4136.996,1356.529 			"/>
			<polygon points="4377.807,1267.179 4112.876,1300.089 3872.196,1354.739 4113.826,1288.849 			"/>
			<polygon points="4371.496,1237.029 4104.616,1230.419 3858.506,1248.889 4107.216,1219.449 			"/>
			<polygon points="4308.166,1074.289 4222.166,1118.289 4127.336,1127.629 4067.666,1104.789 4023.666,1066.789 4017.166,1033.289 
				4011.166,1009.289 4019.666,979.789 4038.666,948.289 4113.666,983.289 4110.166,1031.789 4136.666,1066.789 4168.666,1071.289 
				4196.166,1021.289 			"/>
			<polygon points="4157.996,244.959 4207.996,400.959 4203.996,586.959 4169.996,708.959 4183.996,588.959 4173.996,468.959 
				4151.996,340.959 4083.996,216.959 4005.996,130.959 3939.996,102.959 3863.996,112.959 3809.996,138.959 3867.996,80.959 
				3963.996,74.959 4065.996,118.959 			"/>
			<polygon points="3918.906,578.279 3935.996,734.959 3894.756,596.819 3777.666,433.429 3664.006,311.469 3546.166,264.859 
				3424.626,264.259 3316.906,312.949 3407.506,221.099 3562.196,212.439 3718.136,284.849 3856.416,466.519 			"/>
		</g>
	</g>
	<path d="M2069.614,2113.536"/>
</g>
</svg>
